<?xml version="1.0" encoding="utf-8"?>
<!-- Generator: Adobe Illustrator 16.0.0, SVG Export Plug-In . SVG Version: 6.00 Build 0)  -->
<!DOCTYPE svg PUBLIC "-//W3C//DTD SVG 1.1//EN" "http://www.w3.org/Graphics/SVG/1.1/DTD/svg11.dtd">
<svg version="1.1" id="Layer_1" xmlns="http://www.w3.org/2000/svg" xmlns:xlink="http://www.w3.org/1999/xlink" x="0px" y="0px"
	 width="100.062px" height="100.062px" viewBox="255.969 345.969 100.062 100.062"
	 enable-background="new 255.969 345.969 100.062 100.062" xml:space="preserve">
<g>
	<path fill="#761F84" d="M335.518,378.371c-2.248,0-4.008,1.759-4.008,4.007v13.488c0.88,0.391,1.661,1.173,2.15,2.15
		c0.391,0.781,0.586,1.759,0.488,2.541c-0.098,0.488-0.195,0.88-0.293,1.271c-0.391,0.978-1.173,1.857-2.15,2.346l0,0l0,0
		l-10.066,5.083c-0.196,0.097-0.489,0.195-0.685,0.195c-0.587,0-1.075-0.294-1.368-0.88c-0.392-0.782-0.098-1.662,0.684-2.053
		l6.158-3.128l3.909-1.954c0.782-0.392,1.075-1.368,0.685-2.15c-0.392-0.782-1.369-1.075-2.15-0.685l-3.91,1.955l-11.436,5.767
		c-2.247,1.075-3.42,3.519-3.029,5.864c-0.098,0.293-0.098,0.586-0.098,0.88v13.684c0,3.029,2.443,5.57,5.571,5.57
		c3.029,0,5.57-2.443,5.57-5.57v-12.022l14.759-7.428c1.271-0.685,2.248-1.76,2.737-3.03c0.293-0.586,0.488-1.271,0.488-1.955
		v-19.938C339.524,380.13,337.766,378.371,335.518,378.371z"/>
	<path fill="#761F84" d="M301.602,413.166c0-0.293,0-0.587-0.098-0.88c0.391-2.346-0.782-4.789-3.03-5.864l-11.436-5.767
		l-3.91-1.955c-0.782-0.391-1.759-0.098-2.15,0.685c-0.391,0.782-0.098,1.759,0.684,2.15l3.91,1.954l6.157,3.128
		c0.782,0.392,1.075,1.271,0.685,2.053c-0.293,0.587-0.782,0.88-1.369,0.88c-0.195,0-0.489-0.098-0.684-0.196l-10.067-5.082l0,0l0,0
		c-0.978-0.488-1.76-1.368-2.15-2.346c-0.196-0.391-0.293-0.88-0.293-1.271c-0.098-0.88,0.098-1.759,0.489-2.541
		c0.489-0.978,1.271-1.662,2.15-2.15v-13.586c0-2.248-1.759-4.007-4.007-4.007s-4.007,1.759-4.007,4.007v20.036
		c0,0.685,0.195,1.369,0.489,1.955c0.489,1.271,1.368,2.346,2.737,3.03l14.856,7.428v12.12c0,3.029,2.444,5.571,5.571,5.571
		c3.03,0,5.571-2.444,5.571-5.571l0,0v-13.781H301.602z"/>
</g>
<g>
	<path fill="#7EC301" d="M319.097,367.326c-0.293-1.173-0.684-2.346-1.173-3.421c1.76,1.271,3.323,2.834,4.594,4.594
		C321.345,368.108,320.172,367.717,319.097,367.326z"/>
	<path fill="#7EC301" d="M297.79,361.755c2.15-0.978,4.496-1.564,6.939-1.662v5.473c-2.932,0.098-5.962,0.391-8.796,1.075
		C296.421,364.98,297.008,363.417,297.79,361.755z"/>
	<path fill="#7EC301" d="M316.165,366.642c-2.933-0.684-5.864-0.978-8.797-1.075v-5.473c2.443,0.195,4.789,0.782,6.939,1.662
		C314.992,363.417,315.578,364.98,316.165,366.642z"/>
	<path fill="#7EC301" d="M292.903,367.326c-1.173,0.293-2.346,0.685-3.421,1.173c1.271-1.759,2.834-3.323,4.594-4.594
		C293.685,365.078,293.294,366.153,292.903,367.326z"/>
	<path fill="#7EC301" d="M287.332,372.213c1.563-0.684,3.225-1.369,4.887-1.857c-0.684,2.932-0.978,5.864-1.075,8.796h-5.473
		C285.866,376.709,286.452,374.364,287.332,372.213z"/>
	<path fill="#7EC301" d="M304.729,368.108v10.947h-11.044c0.098-3.226,0.586-6.451,1.368-9.676
		C298.181,368.695,301.504,368.206,304.729,368.108z"/>
	<path fill="#7EC301" d="M304.729,392.738c-3.226-0.098-6.451-0.586-9.676-1.368c-0.782-3.128-1.271-6.451-1.368-9.676h10.947
		v11.044H304.729z"/>
	<path fill="#7EC301" d="M292.219,390.588c-1.662-0.489-3.225-1.173-4.789-1.857c-0.978-2.15-1.564-4.496-1.662-6.939h5.473
		C291.241,384.724,291.535,387.656,292.219,390.588z"/>
	<path fill="#7EC301" d="M292.903,393.521c0.293,1.173,0.684,2.346,1.173,3.421c-1.759-1.271-3.323-2.834-4.594-4.594
		C290.655,392.738,291.828,393.129,292.903,393.521z"/>
	<path fill="#7EC301" d="M295.835,394.205c2.933,0.684,5.864,0.978,8.797,1.075v5.473c-2.444-0.195-4.79-0.782-6.939-1.661
		C297.008,397.43,296.421,395.866,295.835,394.205z"/>
	<path fill="#7EC301" d="M316.165,394.205c-0.489,1.662-1.173,3.225-1.857,4.79c-2.15,0.977-4.496,1.563-6.939,1.661v-5.375
		C310.301,395.182,313.232,394.889,316.165,394.205z"/>
	<path fill="#7EC301" d="M316.946,391.37c-3.127,0.782-6.45,1.271-9.676,1.368v-11.044h10.947
		C318.218,384.919,317.729,388.145,316.946,391.37z"/>
	<path fill="#7EC301" d="M319.097,393.521c1.173-0.293,2.346-0.685,3.421-1.173c-1.271,1.759-2.834,3.323-4.594,4.594
		C318.315,395.769,318.706,394.596,319.097,393.521z"/>
	<path fill="#7EC301" d="M326.33,381.694c-0.196,2.443-0.782,4.789-1.662,6.939c-1.563,0.684-3.226,1.369-4.789,1.857
		c0.685-2.932,0.978-5.864,1.075-8.796H326.33z"/>
	<path fill="#7EC301" d="M316.946,369.477c0.782,3.128,1.271,6.451,1.369,9.676h-11.045v-11.044
		C310.496,368.206,313.819,368.695,316.946,369.477z"/>
	<path fill="#7EC301" d="M326.33,379.153h-5.474c-0.098-2.932-0.391-5.962-1.075-8.796c1.661,0.488,3.226,1.173,4.789,1.857
		C325.548,374.364,326.134,376.709,326.33,379.153z"/>
</g>
</svg>
