<?xml version="1.0" encoding="utf-8"?>
<!-- Generator: Adobe Illustrator 16.0.0, SVG Export Plug-In . SVG Version: 6.00 Build 0)  -->
<!DOCTYPE svg PUBLIC "-//W3C//DTD SVG 1.1//EN" "http://www.w3.org/Graphics/SVG/1.1/DTD/svg11.dtd">
<svg version="1.1" id="Layer_1" xmlns="http://www.w3.org/2000/svg" xmlns:xlink="http://www.w3.org/1999/xlink" x="0px" y="0px"
	 width="100.062px" height="100.062px" viewBox="255.969 345.969 100.062 100.062"
	 enable-background="new 255.969 345.969 100.062 100.062" xml:space="preserve">
<g>
	<g>
		<path fill="#761F86" d="M307.799,393.193L307.799,393.193c0,0.116-0.117,0.116-0.117,0.116S307.682,393.31,307.799,393.193z"/>
		<path fill="#761F86" d="M298.207,393.31h-0.118l0,0C298.089,393.31,298.089,393.31,298.207,393.31z"/>
		<path fill="#761F86" d="M331.547,398.457c-1.404,0-2.691,0.702-3.512,1.755v8.422h-1.754v-11.581
			c-0.467-0.7-1.17-1.287-1.988-1.638c-0.584-0.233-1.287-0.468-1.988-0.468h-0.117c-1.756,0-3.393,1.053-4.211,2.573v2.341
			c-0.234,0.116-0.352,0.351-0.586,0.467c-0.35,0.352-0.701,0.586-1.17,0.937v-4.445c-0.936-1.054-2.221-1.755-3.742-1.755
			c-1.639,0-3.16,0.818-3.979,2.105v11.582h-1.754v-28.428c-0.937-1.286-2.34-2.105-3.978-2.105c-1.638,0-3.159,0.819-3.978,2.105
			v37.552l-4.446-5.966c-1.638-2.106-4.679-2.574-6.785-1.054c-2.105,1.639-2.573,4.681-1.052,6.785l16.143,21.642h25.035
			l8.305-8.305v-28.193C335.875,400.446,334.002,398.457,331.547,398.457z M318.094,408.634h-1.756v-6.551
			c0.352-0.234,0.703-0.35,1.17-0.584c0.234-0.117,0.352-0.234,0.586-0.352V408.634z"/>
		<path fill="#761F86" d="M308.617,392.607v0.468c-0.234,0.118-0.584,0.118-0.818,0.234h-0.117l0.117-0.116
			C308.033,393.075,308.383,392.841,308.617,392.607z"/>
		<path fill="#761F86" d="M298.207,393.31h-0.118c-0.234,0-0.35-0.116-0.585-0.116c-0.116,0-0.116,0-0.234-0.118v-0.468
			c0.234,0.233,0.585,0.351,0.819,0.586C298.089,393.31,298.089,393.31,298.207,393.31z"/>
	</g>
	<path fill="#6D9142" d="M329.908,379.155c0,1.286,0,2.456-0.234,3.743c-0.234,1.521-0.584,2.925-0.936,4.445
		c-0.82,2.807-2.223,5.497-3.977,7.721c-0.117,0.117-0.117,0.233-0.234,0.351c-0.586-0.233-1.287-0.468-1.988-0.468h-0.117
		c0.35-0.585,0.701-1.053,1.053-1.638c1.404-2.573,2.457-5.498,2.924-8.54c0.234-1.521,0.234-3.041,0.234-4.562
		c0-0.702-0.117-1.404-0.234-2.106c0-0.468-0.117-0.818-0.234-1.286c-0.115-0.702-0.232-1.287-0.467-1.989
		c-0.117-0.351-0.234-0.701-0.352-1.053c-0.352-1.169-0.818-2.339-1.404-3.393c-0.584-1.169-1.287-2.339-2.104-3.392
		c-0.82-1.053-1.641-2.105-2.691-3.042c-0.469-0.351-0.82-0.818-1.287-1.169c-0.234-0.235-0.586-0.469-0.818-0.586
		c-1.055-0.818-2.107-1.403-3.275-2.105c-1.287-0.702-2.691-1.17-3.979-1.638c-0.818-0.233-1.521-0.468-2.338-0.585
		c-0.703-0.117-1.522-0.233-2.224-0.351c-0.585,0-1.053-0.117-1.637-0.117c-0.235,0-0.469,0-0.585,0c-0.234,0-0.468,0-0.702,0
		c-0.352,0-0.702,0-0.936,0c-1.053,0.117-2.106,0.234-3.042,0.468c-0.935,0.234-1.989,0.468-2.924,0.818
		c-1.403,0.469-2.691,1.054-3.977,1.755c-1.053,0.585-1.989,1.287-2.925,1.989c-0.703,0.585-1.404,1.17-2.106,1.871
		c-0.818,0.819-1.637,1.756-2.339,2.691c-0.702,0.936-1.403,1.988-1.989,3.158c-0.586,0.936-0.936,1.988-1.287,3.041
		c-0.351,0.937-0.584,1.872-0.818,2.809c-0.118,0.701-0.234,1.403-0.352,2.104c0,0.352-0.116,0.702-0.116,1.054
		c0,0.351,0,0.818-0.118,1.169c0,1.404,0,2.808,0.234,4.096c0.234,1.52,0.585,2.924,1.053,4.444c0.936,2.808,2.339,5.498,4.21,7.838
		c1.639,2.105,3.627,3.859,5.85,5.381c0.937,0.586,1.872,1.17,2.808,1.638c-1.169-0.351-2.457-0.817-3.51-1.404
		c-1.286-0.7-2.573-1.402-3.626-2.222c-2.339-1.754-4.445-3.86-5.965-6.2c-1.639-2.457-2.808-5.147-3.626-7.955
		c-0.352-1.52-0.585-2.925-0.703-4.445c-0.116-1.17-0.116-2.456,0-3.626c0.118-1.287,0.235-2.69,0.585-3.978
		c0.234-0.936,0.468-1.755,0.702-2.69c0.352-1.053,0.702-1.988,1.169-3.041c0.585-1.287,1.287-2.457,1.989-3.627
		c0.819-1.17,1.638-2.34,2.691-3.275c0.702-0.819,1.521-1.521,2.34-2.223c0.468-0.352,0.936-0.818,1.403-1.17
		c0.351-0.233,0.818-0.585,1.169-0.818c1.054-0.702,2.105-1.287,3.276-1.872c0.818-0.351,1.753-0.702,2.689-1.053
		c0.937-0.351,1.989-0.585,3.042-0.819c1.404-0.351,2.925-0.468,4.446-0.585c1.052,0,2.105,0,3.158,0
		c0.702,0,1.403,0.117,2.104,0.234c0.82,0.117,1.639,0.233,2.457,0.468c2.225,0.468,4.328,1.287,6.318,2.34
		c1.053,0.468,1.988,1.053,2.924,1.755c0.703,0.585,1.521,1.053,2.105,1.638c1.053,0.936,1.988,1.871,2.809,2.807
		c0.936,1.054,1.754,2.224,2.457,3.393c0.701,1.054,1.285,2.106,1.754,3.275c0.232,0.469,0.35,0.937,0.584,1.404
		c0.234,0.585,0.352,1.17,0.586,1.755c0.234,0.819,0.469,1.638,0.584,2.573C329.674,376.113,329.791,377.634,329.908,379.155z"/>
	<path fill="#545758" d="M291.89,381.494L291.89,381.494L291.89,381.494L291.89,381.494z"/>
	<path fill="#3EA0C6" d="M316.924,384.186c-0.703,2.689-2.34,5.03-4.445,6.785c-0.703,0.584-1.639,1.052-2.457,1.521
		c-0.352,0.233-0.82,0.35-1.287,0.467c0,0,0,0-0.117,0v-0.467c0.117-0.117,0.117-0.117,0.234-0.234
		c0.467-0.351,1.053-0.819,1.521-1.286c0.936-1.054,1.754-2.224,2.457-3.51c0.232-0.469,0.467-0.937,0.584-1.521
		c0.117-0.351,0.232-0.584,0.232-0.936c0.119-0.351,0.119-0.584,0.234-0.936c0.119-0.937,0.119-1.872,0.119-2.925l0,0v-0.116
		c0-0.234,0-0.352-0.119-0.586c-0.115-0.351-0.115-0.702-0.234-1.053c-0.232-0.701-0.467-1.403-0.701-2.105
		c-0.586-1.286-1.402-2.457-2.457-3.51c-0.584-0.468-1.17-0.936-1.754-1.286c-0.584-0.352-1.17-0.585-1.754-0.819
		c-0.703-0.233-1.404-0.468-2.223-0.585c-0.468-0.117-0.819-0.117-1.287-0.117c-0.234,0-0.468,0-0.702,0l0,0
		c-1.404,0-2.69,0.234-3.978,0.819c-0.117,0-0.234,0.117-0.351,0.117c-0.468,0.233-0.937,0.468-1.404,0.702
		c-0.351,0.233-0.819,0.468-1.169,0.818c-1.989,1.638-3.393,3.86-3.977,6.434c-0.118,0.352-0.118,0.585-0.118,0.937
		c0,0.116,0,0.234,0,0.351c0,0.117,0,0.234,0,0.351c0,0.585-0.116,1.17,0,1.755c0.118,0.702,0.234,1.404,0.352,2.106
		c0.351,1.403,0.936,2.807,1.872,3.977c0.234,0.468,0.585,0.818,0.936,1.17c0.352,0.352,0.585,0.702,0.936,1.053
		c0.351,0.352,0.819,0.702,1.169,0.937c0,0,0,0,0.117,0v0.467c-0.234-0.117-0.468-0.117-0.702-0.233
		c-0.352-0.117-0.702-0.233-0.936-0.468c-0.118-0.117-0.352-0.117-0.468-0.234c-0.117-0.116-0.351-0.233-0.468-0.233
		c-0.585-0.468-1.17-0.818-1.755-1.287c-0.468-0.468-0.936-0.937-1.287-1.403c-0.468-0.468-0.819-1.053-1.169-1.638
		c-0.352-0.586-0.702-1.287-0.936-1.872c-0.233-0.702-0.467-1.403-0.585-2.105c-0.116-0.352-0.116-0.702-0.234-1.053
		c0-0.234,0-0.468-0.117-0.819c0-0.351,0-0.818,0-1.17c0-0.585,0-1.286,0.117-1.871c0.118-0.702,0.234-1.521,0.468-2.223
		c0.234-0.702,0.468-1.404,0.819-2.106c0.936-1.754,2.105-3.275,3.626-4.562c1.17-0.937,2.34-1.638,3.743-2.223
		c2.106-0.819,4.329-1.287,6.551-1.053c1.171,0.117,2.457,0.351,3.628,0.701c1.051,0.352,1.988,0.819,2.924,1.287
		c0.467,0.233,0.936,0.585,1.285,0.819c0.469,0.351,0.82,0.701,1.287,1.053c0.82,0.701,1.521,1.638,2.105,2.457
		c0.82,1.286,1.404,2.572,1.873,3.977C317.508,379.272,317.508,381.846,316.924,384.186z"/>
	<path fill="#545758" d="M298.207,393.31h-0.118c-0.234,0-0.35-0.116-0.585-0.116c-0.116,0-0.116,0-0.234-0.118v-0.468
		c0.234,0.233,0.585,0.351,0.819,0.586C298.089,393.31,298.089,393.31,298.207,393.31z"/>
	<path fill="#545758" d="M308.617,392.607v0.468c-0.234,0.118-0.584,0.118-0.818,0.234h-0.117l0.117-0.116
		C308.033,393.075,308.383,392.841,308.617,392.607z"/>
</g>
</svg>
