<?xml version="1.0" encoding="utf-8"?>
<!-- Generator: Adobe Illustrator 16.0.0, SVG Export Plug-In . SVG Version: 6.00 Build 0)  -->
<!DOCTYPE svg PUBLIC "-//W3C//DTD SVG 1.1//EN" "http://www.w3.org/Graphics/SVG/1.1/DTD/svg11.dtd">
<svg version="1.1" id="Layer_1" xmlns="http://www.w3.org/2000/svg" xmlns:xlink="http://www.w3.org/1999/xlink" x="0px" y="0px"
	 width="100px" height="100px" viewBox="0 0 100 100" enable-background="new 0 0 100 100" xml:space="preserve">
<path fill="#761F86" d="M46.544,57.395v10.613l12.028,4.422l11.409-4.422V57.395c-3.271,2.654-7.253,4.422-11.674,4.422
	C53.797,61.729,49.816,59.959,46.544,57.395z"/>
<path fill="#3EA0C6" d="M72.458,60.666v7.518l-13.975,6.457L43.89,68.271v-7.516c-9.905,3.891-16.981,13.531-16.981,24.764v6.811
	h62.618V85.52C89.438,74.199,82.363,64.557,72.458,60.666z"/>
<path fill="#6D9142" d="M58.219,60.666c10.612,0,19.191-15.211,19.191-25.914c0-4.334-1.415-8.402-3.892-11.585
	c-3.537-4.776-9.021-7.695-15.3-7.695c-4.422,0-8.491,1.503-11.675,4.069l0,0l0,0c-1.857,1.415-3.449,3.184-4.599,5.218
	c-1.857,2.742-2.83,6.28-2.83,9.906C39.026,45.366,47.605,60.666,58.219,60.666z M63.348,27.588
	c0.797,2.654,9.376,9.021,10.88,10.259c-1.415,9.375-8.668,19.9-16.097,19.9c-6.899,0-13.887-9.463-15.744-18.307
	C54.769,40.325,63.348,27.588,63.348,27.588z"/>
<path fill="#6D9142" d="M58.219,60.666c10.612,0,19.191-15.211,19.191-25.914c0-4.334-1.415-8.402-3.892-11.585
	c-3.537-4.776-9.021-7.695-15.3-7.695c-4.422,0-8.491,1.503-11.675,4.069l0,0l0,0c-1.857,1.415-3.449,3.184-4.599,5.218
	c-1.857,2.742-2.83,6.28-2.83,9.906C39.026,45.366,47.605,60.666,58.219,60.666z M63.348,27.588
	c0.797,2.654,9.376,9.021,10.88,10.259c-1.415,9.375-8.668,19.9-16.097,19.9c-6.899,0-13.887-9.463-15.744-18.307
	C54.769,40.325,63.348,27.588,63.348,27.588z"/>
<path fill="#6D9142" d="M36.446,31.999c-0.781,0.364-1.584,0.574-2.391,0.574c-4.255,0-8.564-5.836-9.709-11.291
	c7.636,0.545,12.927-7.309,12.927-7.309c0.37,1.234,3.467,3.768,5.367,5.269c0.685-0.694,1.405-1.36,2.188-1.956
	c0.314-0.253,0.647-0.484,0.977-0.718c-0.302-1.98-1.085-3.812-2.258-5.321C41.364,8.3,37.981,6.5,34.109,6.5
	c-2.728,0-5.237,0.927-7.2,2.509c-1.146,0.873-2.127,1.963-2.836,3.218c-1.146,1.691-1.746,3.873-1.746,6.109
	c-0.055,6.6,5.236,16.036,11.782,16.036c0.75,0,1.481-0.137,2.193-0.365C36.321,33.332,36.368,32.662,36.446,31.999z"/>
<path fill="#761F86" d="M36.285,34.854c-0.686,0.145-1.394,0.228-2.122,0.228c-2.782-0.055-5.236-1.146-7.254-2.727V38.9
	l7.418,2.727l2.604-1.009C36.51,38.651,36.287,36.708,36.285,34.854z"/>
<path fill="#3EA0C6" d="M37.177,41.649l-2.904,1.342l-9-3.927v-4.636C19.164,36.827,14.8,42.773,14.8,49.7v4.2h27.953
	C40.198,50.27,38.241,45.943,37.177,41.649z"/>
</svg>
